<?xml version="1.0" encoding="UTF-8"?>
<svg id="_Слой_1" data-name="Слой 1" xmlns="http://www.w3.org/2000/svg" viewBox="0 0 3414.57 3261.84">
  <defs>
    <style>
      .cls-1 {
        fill: #fff;
        stroke-width: 0px;
      }
    </style>
  </defs>
  <path class="cls-1" d="m543.86,546.55c-41.42-59.97-82.23-118.09-122.41-176.2-52.55-76.66-18.55-149,73.57-157.04,223.81-19.17,447.61-37.71,672.04-55.02,24.11-1.85,52.55,1.24,73.57,12.37,45.75,24.11,55.02,74.19,29.06,129.21-44.51,94.59-89.65,189.19-134.16,283.78-51.93,110.67-103.87,221.33-156.42,331.38-40.19,83.46-119.94,88.41-172.49,11.13-22.26-32.15-44.51-63.68-71.72-102.63-38.33,59.97-76.66,113.14-108.81,169.4-120.56,213.3-178.06,443.29-167.55,688.11,12.98,320.87,128.6,602.18,348.08,837.73,233.08,251.01,523.04,393.21,864.32,414.23,429.68,26.58,791.98-124.89,1076.99-448.23,192.28-218.24,297.38-476.05,315.31-766.63,21.02-349.31-80.37-661.53-308.51-929.23-221.33-259.67-503.87-409.28-842.68-451.94-46.99-5.56-93.97-7.42-141.58-8.66-99.54-1.85-173.73-72.95-173.11-166.31C1597.98,69.26,1672.17-1.22,1771.09.02c416.7,5.56,781.47,147.14,1089.36,427.83,300.47,273.89,478.53,615.16,521.19,1018.88,55.64,520.57-103.87,971.89-473.58,1342.84-275.74,276.98-612.69,435.25-1003.42,466.16-528.61,42.04-978.07-132.92-1340.99-518.71-255.96-271.41-398.77-597.85-428.45-970.04-35.86-456.89,99.54-858.75,395.68-1207.45,4.33-2.47,7.42-6.18,12.98-12.98Z"/>
  <path class="cls-1" d="m1926.27,1119.05c0,127.36,1.24,254.72-.62,382.08-.62,29.06,11.75,41.42,34.62,53.79,111.29,59.35,222.57,119.32,333.24,180.53,116.85,64.3,122.41,220.1,10.51,287.49-51.31,30.91-106.34,32.77-158.89,4.33-155.8-83.46-310.36-168.16-464.93-253.48-52.55-29.06-80.99-76.66-80.99-136.63-1.24-299.85-1.24-599.7,0-900.17.62-89.65,73.57-160.13,161.98-161.36,87.17-1.24,161.98,68.01,163.84,158.27,2.47,128.6.62,256.57.62,385.17-.62,0,0,0,.62,0Z"/>
</svg>