<?xml version="1.0" encoding="utf-8"?>
<!-- Generator: Adobe Illustrator 28.0.0, SVG Export Plug-In . SVG Version: 6.00 Build 0)  -->
<svg version="1.1" id="Слой_1" xmlns="http://www.w3.org/2000/svg" xmlns:xlink="http://www.w3.org/1999/xlink" x="0px" y="0px"
	 viewBox="0 0 1100.2 1100.2" style="enable-background:new 0 0 1100.2 1100.2;" xml:space="preserve">
<style type="text/css">
	.st0{fill:#262626;}
	.st1{fill:#FFFFFF;}
</style>
<rect class="st0" width="1100.2" height="1100.2"/>
<image style="overflow:visible;" width="1000" height="1001" xlink:href="603bdbbe6a41f43774a83bf0_Minim Logo Sq.jpg"  transform="matrix(1 0 0 1 -1502.3069 -927.5784)">
</image>
<g>
	<path d="M-860.6,881.5c-160,0-320,0-480,0c0-160,0-320,0-480c160,0,320,0,480,0C-860.6,561.5-860.6,721.5-860.6,881.5z
		 M-1248.4,509.7c-0.6,0.8-1,1.3-1.4,1.8c-36,42.5-52.5,91.4-48.1,147c3.6,45.3,21,85,52.1,118c44.2,46.9,98.9,68.2,163.2,63.1
		c47.5-3.8,88.5-23,122.1-56.8c45-45.2,64.4-100.1,57.6-163.4c-5.2-49.1-26.9-90.7-63.4-124c-37.5-34.2-81.9-51.4-132.6-52.1
		c-12-0.2-21,8.4-21.1,19.7c-0.1,11.4,8.9,20,21,20.2c5.7,0.1,11.5,0.3,17.2,1c41.2,5.1,75.6,23.4,102.5,55
		c27.7,32.5,40.1,70.5,37.5,113c-2.1,35.3-14.9,66.7-38.3,93.3c-34.7,39.4-78.7,57.8-131,54.6c-41.6-2.6-76.8-19.9-105.2-50.4
		c-26.7-28.7-40.7-62.9-42.3-102c-1.2-29.8,5.8-57.8,20.4-83.7c3.9-6.9,8.6-13.4,13.2-20.6c3.3,4.7,6,8.6,8.7,12.5
		c6.4,9.4,16.1,8.8,21-1.4c6.4-13.4,12.7-26.9,19-40.3c5.4-11.5,10.9-23,16.3-34.6c3.1-6.7,2-12.7-3.6-15.7c-2.6-1.4-6-1.7-9-1.5
		c-27.3,2.1-54.5,4.4-81.8,6.7c-11.2,0.9-15.4,9.8-9,19.1C-1258.4,495.4-1253.5,502.5-1248.4,509.7z M-1080.1,579.4
		c-0.1,0-0.1,0-0.2,0c0-15.6,0.2-31.3-0.1-46.9c-0.2-11-9.3-19.4-20-19.3c-10.7,0.1-19.7,8.8-19.7,19.6c-0.1,36.5-0.1,73,0,109.5
		c0,7.3,3.5,13.1,9.9,16.6c18.8,10.4,37.7,20.7,56.6,30.9c6.4,3.4,13.1,3.2,19.3-0.5c13.6-8.2,12.9-27.1-1.3-35
		c-13.5-7.4-27-14.7-40.5-21.9c-2.8-1.5-4.2-3-4.2-6.5C-1080,610.4-1080.1,594.9-1080.1,579.4z"/>
	<path class="st1" d="M-1248.4,509.7c-5.1-7.3-10-14.3-14.9-21.4c-6.4-9.3-2.2-18.2,9-19.1c27.3-2.3,54.5-4.6,81.8-6.7
		c3-0.2,6.4,0.1,9,1.5c5.6,3,6.7,9,3.6,15.7c-5.4,11.5-10.9,23-16.3,34.6c-6.3,13.4-12.6,26.9-19,40.3c-4.9,10.2-14.6,10.7-21,1.4
		c-2.7-3.9-5.4-7.7-8.7-12.5c-4.7,7.3-9.3,13.7-13.2,20.6c-14.7,26-21.6,54-20.4,83.7c1.6,39.1,15.7,73.3,42.3,102
		c28.4,30.5,63.6,47.8,105.2,50.4c52.3,3.2,96.3-15.2,131-54.6c23.4-26.6,36.2-57.9,38.3-93.3c2.6-42.5-9.8-80.5-37.5-113
		c-26.9-31.6-61.3-49.8-102.5-55c-5.7-0.7-11.5-0.9-17.2-1c-12.1-0.3-21.2-8.9-21-20.2c0.1-11.3,9.1-19.9,21.1-19.7
		c50.7,0.7,95.1,17.9,132.6,52.1c36.5,33.3,58.2,74.9,63.4,124c6.8,63.3-12.6,118.3-57.6,163.4c-33.6,33.7-74.6,53-122.1,56.8
		c-64.3,5.1-119-16.2-163.2-63.1c-31.1-33-48.5-72.7-52.1-118c-4.4-55.6,12.1-104.5,48.1-147C-1249.4,511-1249,510.5-1248.4,509.7z"
		/>
	<path class="st1" d="M-1080.1,579.4c0,15.5,0.1,31-0.1,46.5c-0.1,3.5,1.4,5.1,4.2,6.5c13.6,7.2,27.1,14.5,40.5,21.9
		c14.2,7.9,14.9,26.8,1.3,35c-6.3,3.8-12.9,4-19.3,0.5c-18.9-10.2-37.8-20.4-56.6-30.9c-6.4-3.5-9.8-9.4-9.9-16.6
		c-0.1-36.5-0.1-73,0-109.5c0-10.9,9-19.5,19.7-19.6c10.6-0.1,19.7,8.3,20,19.3c0.3,15.6,0.1,31.2,0.1,46.9
		C-1080.3,579.4-1080.2,579.4-1080.1,579.4z"/>
</g>
<g>
	<path class="st1" d="M353.1,374.5c-6.7-9.7-13.3-19.1-19.8-28.5c-8.5-12.4-3-24.1,11.9-25.4c36.2-3.1,72.4-6.1,108.7-8.9
		c3.9-0.3,8.5,0.2,11.9,2c7.4,3.9,8.9,12,4.7,20.9c-7.2,15.3-14.5,30.6-21.7,45.9c-8.4,17.9-16.8,35.8-25.3,53.6
		c-6.5,13.5-19.4,14.3-27.9,1.8c-3.6-5.2-7.2-10.3-11.6-16.6c-6.2,9.7-12.4,18.3-17.6,27.4c-19.5,34.5-28.8,71.7-27.1,111.3
		c2.1,51.9,20.8,97.4,56.3,135.5c37.7,40.6,84.6,63.6,139.8,67c69.5,4.3,128.1-20.2,174.2-72.5c31.1-35.3,48.1-77,51-124
		c3.4-56.5-13-107-49.9-150.3c-35.8-42-81.5-66.2-136.3-73.1c-7.6-0.9-15.2-1.2-22.9-1.4c-16.1-0.3-28.1-11.8-28-26.9
		c0.1-15,12.1-26.4,28.1-26.2c67.4,0.9,126.4,23.8,176.2,69.2c48.6,44.3,77.4,99.5,84.3,164.8c9,84.2-16.8,157.2-76.6,217.2
		c-44.6,44.8-99.1,70.4-162.3,75.4c-85.5,6.8-158.2-21.5-216.9-83.9c-41.4-43.9-64.5-96.7-69.3-156.9c-5.8-73.9,16.1-138.9,64-195.3
		C351.7,376.2,352.2,375.6,353.1,374.5z"/>
	<path class="st1" d="M576.7,467.1c0,20.6,0.2,41.2-0.1,61.8c-0.1,4.7,1.9,6.7,5.6,8.7c18,9.6,36,19.3,53.9,29.2
		c18.9,10.4,19.8,35.6,1.7,46.5c-8.3,5-17.2,5.3-25.7,0.7c-25.2-13.5-50.2-27.2-75.2-41c-8.5-4.7-13.1-12.4-13.1-22.1
		c-0.2-48.5-0.2-97,0-145.6c0.1-14.5,11.9-25.9,26.2-26.1c14.1-0.2,26.2,11,26.5,25.6c0.4,20.8,0.1,41.5,0.1,62.3
		C576.5,467.1,576.6,467.1,576.7,467.1z"/>
</g>
</svg>
