<?xml version="1.0" encoding="UTF-8"?>
<svg id="_Слой_1" data-name="Слой 1" xmlns="http://www.w3.org/2000/svg" viewBox="0 0 2627.6 1100.2">
  <defs>
    <style>
      .cls-1 {
        fill: #fff;
        stroke-width: 0px;
      }
    </style>
  </defs>
  <g>
    <path class="cls-1" d="m846.4,493.18V206.27l-113.44,286.91h-28.83l-110.61-286.91v286.91h-45.85V155.69h78.46l95.95,259.02,101.15-259.02h74.21v337.49h-51.05Z"/>
    <path class="cls-1" d="m1184.83,493.18V227.06l-177.25,266.11h-51.05V155.69h51.05v266.59l177.25-266.59h50.58v337.49h-50.58Z"/>
    <path class="cls-1" d="m1524.68,493.18v-140.38h-177.25v140.38h-51.05V155.69h51.05v151.25h177.25v-151.25h50.58v337.49h-50.58Z"/>
    <path class="cls-1" d="m1670.74,155.69l96.9,137.08,100.68-137.08h55.3l-249.1,337.49h-55.3l120.53-163.07-129.51-174.42h60.5Z"/>
    <path class="cls-1" d="m2048.39,493.18V201.54h-109.66v-45.85h271.31v45.85h-110.6v291.64h-51.05Z"/>
  </g>
  <g>
    <path class="cls-1" d="m81.13,897.71v-337.49h188.12c56.25,0,92.64,31.67,92.64,83.19,0,37.81-23.63,65.7-59.56,73.26,43.01,7.56,73.74,36.4,73.74,83.19,0,95.01-76.1,97.84-132.35,97.84H81.13Zm235.39-247.68c0-30.25-18.91-49.63-49.63-49.63h-134.71v99.26h130.46c35.92,0,53.88-21.27,53.88-49.63Zm-184.34,91.23v114.39h114.86c34.98,0,80.83-4.73,80.83-61.45,0-38.76-35.45-52.94-63.81-52.94h-131.88Z"/>
    <path class="cls-1" d="m844.02,897.71v-286.91l-113.44,286.91h-28.83l-110.61-286.91v286.91h-45.85v-337.49h78.46l95.95,259.02,101.15-259.02h74.21v337.49h-51.05Z"/>
    <path class="cls-1" d="m1181.5,897.71v-266.11l-177.25,266.11h-51.05v-337.49h51.05v266.59l177.25-266.59h50.58v337.49h-50.58Z"/>
    <path class="cls-1" d="m1520.41,897.71v-140.38h-177.25v140.38h-51.05v-337.49h51.05v151.25h177.25v-151.25h50.58v337.49h-50.58Z"/>
    <path class="cls-1" d="m1665.52,560.22l96.9,137.07,100.68-137.07h55.3l-249.1,337.49h-55.3l120.53-163.07-129.51-174.42h60.5Z"/>
    <path class="cls-1" d="m2042.23,897.71v-291.64h-109.66v-45.85h271.31v45.85h-110.6v291.64h-51.05Z"/>
    <path class="cls-1" d="m2278.09,560.22l96.9,137.07,100.68-137.07h55.3l-249.1,337.49h-55.3l120.53-163.07-129.51-174.42h60.5Z"/>
  </g>
  <path class="cls-1" d="m2464.69,434.57h-178.67l-25.52,58.61h-55.3l160.71-337.49h27.89l152.67,337.49h-56.72l-25.05-58.61Zm-161.65-38.29h145.11l-71.85-167.8-73.26,167.8Z"/>
</svg>