<?xml version="1.0" encoding="utf-8"?>
<!-- Generator: Adobe Illustrator 28.0.0, SVG Export Plug-In . SVG Version: 6.00 Build 0)  -->
<svg version="1.1" id="icon" xmlns="http://www.w3.org/2000/svg" xmlns:xlink="http://www.w3.org/1999/xlink" x="0px" y="0px"
	 viewBox="0 0 32 32" style="enable-background:new 0 0 32 32;" xml:space="preserve">
<style type="text/css">
	.st0{fill:#FFFFFF;}
</style>
<path class="st0" d="M10,30H4c-1.1,0-2-0.9-2-2V16c0-1.1,0.9-2,2-2h6c1.1,0,2,0.9,2,2v12C12,29.1,11.1,30,10,30z M4,16v12h6V16H4z"
	/>
<path class="st0" d="M28,4H6C4.9,4,4,4.9,4,6v6h2V6h22v14H14v2h2v4h-2v2h9v-2h-5v-4h10c1.1,0,2-0.9,2-2V6C30,4.9,29.1,4,28,4z"/>
</svg>
