<?xml version="1.0" encoding="utf-8"?>
<!-- Generator: Adobe Illustrator 28.0.0, SVG Export Plug-In . SVG Version: 6.00 Build 0)  -->
<svg version="1.1" id="icon" xmlns="http://www.w3.org/2000/svg" xmlns:xlink="http://www.w3.org/1999/xlink" x="0px" y="0px"
	 viewBox="0 0 32 32" style="enable-background:new 0 0 32 32;" xml:space="preserve">
<style type="text/css">
	.st0{fill:#FFFFFF;}
</style>
<path class="st0" d="M29.2,6.8c-2.3-2.3-6.1-2.4-8.5,0c0,0,0,0,0,0l1.4,1.4c1.6-1.6,4.1-1.6,5.7,0s1.6,4.1,0,5.7l-8,8
	c-1.6,1.6-4.1,1.6-5.7,0c-1.6-1.6-1.6-4.1,0-5.7l1.4-1.4l-1.4-1.4l-1.4,1.4c-2.3,2.3-2.4,6.1,0,8.5c0,0,0,0,0,0
	c1.1,1.1,2.7,1.7,4.2,1.7c1.6,0,3.1-0.6,4.3-1.8l8-8C31.6,12.9,31.6,9.1,29.2,6.8z"/>
<path class="st0" d="M4.2,24.8c-1.6-1.6-1.6-4.1,0-5.7c0,0,0,0,0,0l8-8c1.6-1.6,4.1-1.6,5.7,0c0,0,0,0,0,0c0.7,0.8,1.2,1.8,1.1,2.9
	c0,1.1-0.4,2.1-1.2,2.9L15.7,19l1.4,1.4l2.1-2.1c2.3-2.3,2.3-6.2,0-8.5s-6.2-2.3-8.5,0l-8,8c-2.3,2.3-2.4,6.1,0,8.5c0,0,0,0,0,0
	C3.9,27.4,5.4,28,7,28c1.6,0,3.1-0.6,4.3-1.8l-1.4-1.4C8.3,26.4,5.8,26.4,4.2,24.8C4.2,24.8,4.2,24.8,4.2,24.8z"/>
</svg>
