<?xml version="1.0" encoding="utf-8"?>
<!-- Generator: Adobe Illustrator 28.0.0, SVG Export Plug-In . SVG Version: 6.00 Build 0)  -->
<svg version="1.1" id="icon" xmlns="http://www.w3.org/2000/svg" xmlns:xlink="http://www.w3.org/1999/xlink" x="0px" y="0px"
	 viewBox="0 0 32 32" style="enable-background:new 0 0 32 32;" xml:space="preserve">
<style type="text/css">
	.st0{fill:#FFFFFF;}
</style>
<path class="st0" d="M28,8h2V4c0-1.1-0.9-2-2-2h-4v2h4V8z"/>
<rect x="17" y="2" class="st0" width="4" height="2"/>
<rect x="28" y="11" class="st0" width="2" height="4"/>
<path class="st0" d="M28,18v4h-4V10c0-1.1-0.9-2-2-2H10V4h4V2h-4C8.9,2,8,2.9,8,4v4H4c-1.1,0-2,0.9-2,2v18c0,1.1,0.9,2,2,2h18
	c1.1,0,2-0.9,2-2v-4h4c1.1,0,2-0.9,2-2v-4H28z M22,28H4V10h18V28z"/>
</svg>
