<?xml version="1.0" encoding="utf-8"?>
<!-- Generator: Adobe Illustrator 28.0.0, SVG Export Plug-In . SVG Version: 6.00 Build 0)  -->
<svg version="1.1" id="icon" xmlns="http://www.w3.org/2000/svg" xmlns:xlink="http://www.w3.org/1999/xlink" x="0px" y="0px"
	 viewBox="0 0 32 32" style="enable-background:new 0 0 32 32;" xml:space="preserve">
<style type="text/css">
	.st0{fill:#FFFFFF;}
</style>
<path class="st0" d="M27.7,4.3c-0.3-0.3-0.7-0.4-1-0.2l-22,8c-0.5,0.2-0.8,0.8-0.6,1.3c0.1,0.3,0.3,0.5,0.6,0.6l9.6,3.8l3.8,9.6
	c0.1,0.4,0.5,0.6,0.9,0.6l0,0c0.4,0,0.8-0.3,0.9-0.7l8-22C28.1,5,28,4.6,27.7,4.3z M19,24.2l-2.8-7l4.8-4.8L19.6,11l-4.8,4.8l-7-2.8
	l17.5-6.3L19,24.2z"/>
</svg>
